{
  "asset": {
    "version": "2.0",
    "generator": "Sketchup glTF Exporter v1.2.6 by Centaur"
  },
  "scene": 0,
  "scenes": [
    {
      "nodes": [
        0
      ]
    }
  ],
  "samplers": [
    {
    }
  ],
  "nodes": [
    {
      "name": "root",
      "children": [
        1
      ]
    },
    {
      "name": "Composant#1",
      "children": [
        2,
        3,
        4,
        5
      ]
    },
    {
      "name": "badeau",
      "mesh": 0
    },
    {
      "name": "bord",
      "mesh": 1
    },
    {
      "name": "chapeau0",
      "mesh": 2
    },
    {
      "name": "Skull",
      "mesh": 3
    }
  ],
  "materials": [
    {
      "pbrMetallicRoughness": {
        "baseColorFactor": [
          0.0,
          0.0,
          0.0,
          1.0
        ],
        "metallicFactor": 0.1,
        "roughnessFactor": 0.9
      },
      "name": "02 - Default1"
    },
    {
      "pbrMetallicRoughness": {
        "baseColorFactor": [
          0.0987,
          0.037,
          0.0046,
          1.0
        ],
        "metallicFactor": 0.1,
        "roughnessFactor": 0.9
      },
      "name": "Rand.1"
    },
    {
      "pbrMetallicRoughness": {
        "baseColorTexture": {
          "index": 0
        },
        "metallicFactor": 0.1,
        "roughnessFactor": 0.9
      },
      "name": "Material1"
    },
    {
      "pbrMetallicRoughness": {
        "baseColorFactor": [
          1.0,
          0.8913,
          0.6121,
          1.0
        ],
        "metallicFactor": 0.1,
        "roughnessFactor": 0.9
      },
      "name": "Color_D05"
    },
    {
      "pbrMetallicRoughness": {
        "baseColorFactor": [
          0.5605,
          0.5605,
          0.5605,
          1.0
        ],
        "metallicFactor": 0.1,
        "roughnessFactor": 0.9
      },
      "name": "Moldy Old Skull1"
    },
    {
      "pbrMetallicRoughness": {
        "baseColorTexture": {
          "index": 1
        },
        "metallicFactor": 0.1,
        "roughnessFactor": 0.9
      },
      "name": "Material2"
    }
  ],
  "images": [
    {
      "bufferView": 0,
      "mimeType": "image/jpeg"
    },
    {
      "bufferView": 1,
      "mimeType": "image/jpeg"
    }
  ],
  "textures": [
    {
      "source": 0,
      "sampler": 0
    },
    {
      "source": 1,
      "sampler": 0
    }
  ],
  "meshes": [
    {
      "primitives": [
        {
          "attributes": {
            "POSITION": 0,
            "NORMAL": 1
          },
          "indices": 5,
          "mode": 4,
          "material": 0
        }
      ]
    },
    {
      "primitives": [
        {
          "attributes": {
            "POSITION": 0,
            "NORMAL": 1
          },
          "indices": 6,
          "mode": 4,
          "material": 1
        }
      ]
    },
    {
      "primitives": [
        {
          "attributes": {
            "POSITION": 2,
            "NORMAL": 3,
            "TEXCOORD_0": 4
          },
          "indices": 7,
          "mode": 4,
          "material": 2
        }
      ]
    },
    {
      "primitives": [
        {
          "attributes": {
            "POSITION": 0,
            "NORMAL": 1
          },
          "indices": 8,
          "mode": 4,
          "material": 3
        },
        {
          "attributes": {
            "POSITION": 0,
            "NORMAL": 1
          },
          "indices": 9,
          "mode": 4,
          "material": 4
        },
        {
          "attributes": {
            "POSITION": 2,
            "NORMAL": 3,
            "TEXCOORD_0": 4
          },
          "indices": 10,
          "mode": 4,
          "material": 5
        }
      ]
    }
  ],
  "accessors": [
    {
      "bufferView": 2,
      "componentType": 5126,
      "count": 13626,
      "type": "VEC3",
      "min": [
        -1.0685615316540236,
        0.03566160111427306,
        -1.5758451808730114
      ],
      "max": [
        0.3373733809526235,
        1.2154065874670086,
        0.22508598313961814
      ]
    },
    {
      "bufferView": 3,
      "componentType": 5126,
      "count": 13626,
      "type": "VEC3",
      "min": [
        -0.9998505229538875,
        -0.9999908540903338,
        -0.9999260807619715
      ],
      "max": [
        0.9998615460735373,
        0.9998457990849585,
        0.999549474335672
      ]
    },
    {
      "bufferView": 4,
      "componentType": 5126,
      "count": 40492,
      "type": "VEC3",
      "min": [
        -1.0537750055407638,
        0.19994297981262205,
        -1.5621823502245136
      ],
      "max": [
        0.32256472532268277,
        1.5682215220139566,
        0.15516951432858295
      ]
    },
    {
      "bufferView": 5,
      "componentType": 5126,
      "count": 40492,
      "type": "VEC3",
      "min": [
        -0.9993321703371928,
        -0.999449550880798,
        -0.9999013799614154
      ],
      "max": [
        0.9998084740855028,
        0.9999274902567349,
        0.9990196087764431
      ]
    },
    {
      "bufferView": 6,
      "componentType": 5126,
      "count": 40492,
      "type": "VEC2",
      "min": [
        -8.30712345579309,
        -8.142772451907053
      ],
      "max": [
        8.342863463146434,
        7.576208863674638
      ]
    },
    {
      "bufferView": 7,
      "componentType": 5123,
      "count": 20886,
      "type": "SCALAR"
    },
    {
      "bufferView": 7,
      "componentType": 5123,
      "count": 36288,
      "type": "SCALAR",
      "byteOffset": 41772
    },
    {
      "bufferView": 8,
      "componentType": 5123,
      "count": 20886,
      "type": "SCALAR"
    },
    {
      "bufferView": 7,
      "componentType": 5123,
      "count": 22923,
      "type": "SCALAR",
      "byteOffset": 114348
    },
    {
      "bufferView": 7,
      "componentType": 5123,
      "count": 12,
      "type": "SCALAR",
      "byteOffset": 160194
    },
    {
      "bufferView": 8,
      "componentType": 5123,
      "count": 19608,
      "type": "SCALAR",
      "byteOffset": 41772
    }
  ],
  "bufferViews": [
    {
      "buffer": 0,
      "byteLength": 68454
    },
    {
      "buffer": 0,
      "byteOffset": 68454,
      "byteLength": 328721
    },
    {
      "buffer": 0,
      "byteOffset": 397176,
      "byteLength": 163512,
      "target": 34962,
      "byteStride": 12
    },
    {
      "buffer": 0,
      "byteOffset": 560688,
      "byteLength": 163512,
      "target": 34962,
      "byteStride": 12
    },
    {
      "buffer": 0,
      "byteOffset": 724200,
      "byteLength": 485904,
      "target": 34962,
      "byteStride": 12
    },
    {
      "buffer": 0,
      "byteOffset": 1210104,
      "byteLength": 485904,
      "target": 34962,
      "byteStride": 12
    },
    {
      "buffer": 0,
      "byteOffset": 1696008,
      "byteLength": 323936,
      "target": 34962,
      "byteStride": 8
    },
    {
      "buffer": 0,
      "byteOffset": 2019944,
      "byteLength": 160218,
      "target": 34963
    },
    {
      "buffer": 0,
      "byteOffset": 2180162,
      "byteLength": 80988,
      "target": 34963
    }
  ],
  "buffers": [
    {
      "uri": "data:application/octet-stream;base64,",
      "byteLength": 2261150
    }
  ]
}